# xmcd
# 
# Track frame offsets:
#     150
#     12647
#     23591
#     38393
#     56402
#     71491
#     93154
#     104778
#     120559
#     136428
#     150236
#     164186
# 
# Disc length: 2252
# 
# Revision: 5
# Processed by: cddbd v1.5.2PL0 Copyright (c) Steve Scherf et al.
# Submitted via: fre:ac v1.0.17
# 
DISCID=9608ca0c
DTITLE=Carla Bruni - Quelqu'Un m'a dit
DYEAR=2002
DGENRE=Latin
TTITLE0=Quelqu'Un M'A Dit
TTITLE1=Raphaël
TTITLE2=Tout Le Monde
TTITLE3=La Noyée
TTITLE4=Le Toi Du Moi
TTITLE5=Le Ciel Dans Une Chambre
TTITLE6=J'en Connais
TTITLE7=Le Plus Beau Du Quartier
TTITLE8=Chanson Triste
TTITLE9=L'Excessive
TTITLE10=L'Amour
TTITLE11=La Dernière Minute
EXTD=
EXTT0=
EXTT1=
EXTT2=
EXTT3=
EXTT4=
EXTT5=
EXTT6=
EXTT7=
EXTT8=
EXTT9=
EXTT10=
EXTT11=
PLAYORDER=
